<?xml version="1.0" encoding="UTF-8" standalone="no"?>
<svg
   xmlns:dc="http://purl.org/dc/elements/1.1/"
   xmlns:cc="http://creativecommons.org/ns#"
   xmlns:rdf="http://www.w3.org/1999/02/22-rdf-syntax-ns#"
   xmlns:svg="http://www.w3.org/2000/svg"
   xmlns="http://www.w3.org/2000/svg"
   xml:space="preserve"
   style="enable-background:new 0 0 WIDTH 612;"
   viewBox="0 0 WIDTH 612"
   height="612px"
   width="WIDTH"
   y="0px"
   x="0px"
   id="Capa_1"
   version="1.1"><metadata
     id="metadata3419"><rdf:RDF><cc:Work
         rdf:about=""><dc:format>image/svg+xml</dc:format><dc:type
           rdf:resource="http://purl.org/dc/dcmitype/StillImage" /><dc:title></dc:title></cc:Work></rdf:RDF></metadata><defs
     id="defs3407"><style
       id="style3409"
       type="text/css"><![CDATA[
			* {
				stroke: COLOR;
				fill: COLOR;
			}

			text {
				font-size: 200px;
			}
	    ]]></style></defs><g
     id="g3411"><text
       id="text3413"
       y="380px"
       x="650px">VALUE</text>
<path
       id="path3415"
       d="M600.394,162.777c-7.709-7.879-17.235-11.932-28.51-11.932H89.844c-10.941,0-20.221,3.975-28.178,11.932 s-11.939,17.243-11.939,28.178v54.375H18.566C8.289,245.329,0,253.286,0,263.564v1.322v1.995v79.562v1.33v1.986 c0,10.277,8.289,18.232,18.566,18.232h31.162v53.045c0,10.941,3.975,20.229,11.939,28.186s17.243,11.932,28.178,11.932h482.039 c11.274,0,20.972-3.896,28.511-11.605c7.709-7.873,11.605-17.568,11.605-28.51V190.956 C612,180.021,607.94,170.486,600.394,162.777z M575.201,421.035c0,2.32-0.997,3.318-3.317,3.318H89.844 c-1.33,0-3.65-1.988-3.65-3.318v-230.08c0-1.323,2.32-3.31,3.65-3.31h482.039c2.32,0,3.317,0.99,3.317,3.31L575.201,421.035 L575.201,421.035z" /><!-- TEMPLATE --><!-- THIRD --><!-- SECOND --><!-- FIRST --><!-- /TEMPLATE --></g><polygon
     transform="matrix(1.0842231,0,0,1.0842231,116.58154,62.353969)"
     points="182.691,322.104 269.701,210.375 214.544,210.375 238.059,127.334 151.049,239.062 206.206,239.062 "
     id="polygon3596" /></svg>