<?xml version="1.0" encoding="UTF-8" standalone="no"?>
<!-- Generator: Adobe Illustrator 16.0.0, SVG Export Plug-In . SVG Version: 6.00 Build 0)  -->

<svg
   xmlns:dc="http://purl.org/dc/elements/1.1/"
   xmlns:cc="http://creativecommons.org/ns#"
   xmlns:rdf="http://www.w3.org/1999/02/22-rdf-syntax-ns#"
   xmlns:svg="http://www.w3.org/2000/svg"
   xmlns="http://www.w3.org/2000/svg"
   xmlns:sodipodi="http://sodipodi.sourceforge.net/DTD/sodipodi-0.dtd"
   xmlns:inkscape="http://www.inkscape.org/namespaces/inkscape"
   version="1.1"
   id="Capa_1"
   x="0px"
   y="0px"
   width="307"
   height="460.75098"
   viewBox="0 0 307 460.75098"
   xml:space="preserve"
   inkscape:version="0.91 r13725"
   sodipodi:docname="icon.svg"
   inkscape:export-filename="/Users/Andreas/Projekte/MobileBattery/res/img/icon.png"
   inkscape:export-xdpi="150"
   inkscape:export-ydpi="150"><metadata
     id="metadata3437"><rdf:RDF><cc:Work
         rdf:about=""><dc:format>image/svg+xml</dc:format><dc:type
           rdf:resource="http://purl.org/dc/dcmitype/StillImage" /><dc:title /></cc:Work></rdf:RDF></metadata><defs
     id="defs3435" /><sodipodi:namedview
     pagecolor="#ffffff"
     bordercolor="#666666"
     borderopacity="1"
     objecttolerance="10"
     gridtolerance="10"
     guidetolerance="10"
     inkscape:pageopacity="0"
     inkscape:pageshadow="2"
     inkscape:window-width="1280"
     inkscape:window-height="690"
     id="namedview3433"
     showgrid="false"
     inkscape:zoom="1"
     inkscape:cx="130.01834"
     inkscape:cy="215.67992"
     inkscape:window-x="0"
     inkscape:window-y="0"
     inkscape:window-maximized="1"
     inkscape:current-layer="layer1"
     fit-margin-top="0"
     fit-margin-left="0"
     fit-margin-right="0"
     fit-margin-bottom="0"
     showguides="false" /><g
     inkscape:groupmode="layer"
     id="layer1"
     inkscape:label="background"
     style="display:inline;opacity:1"
     transform="translate(-56.499995,19.999994)"><g
       style="opacity:1;fill:#ffffff;fill-opacity:1;stroke:#ffffff;stroke-width:20.02834129;stroke-miterlimit:4;stroke-dasharray:none;stroke-opacity:1"
       transform="matrix(1.1027247,0,0,1.0672365,-21.986259,-14.144916)"
       inkscape:export-ydpi="150"
       inkscape:export-xdpi="150"
       id="g4159"><path
         style="fill:#ffffff;fill-opacity:1;stroke:#ffffff;stroke-width:20.02834129;stroke-miterlimit:4;stroke-dasharray:none;stroke-opacity:1"
         inkscape:connector-curvature="0"
         id="path4161"
         d="m 258.188,0 -95.625,0 c -10.566,0 -19.125,8.559 -19.125,19.125 l 0,19.125 -38.25,0 C 89.371,38.25 76.5,51.121 76.5,66.938 l 0,325.125 c 0,15.816 12.871,28.688 28.688,28.688 l 210.375,0 c 15.816,0 28.688,-12.871 28.688,-28.688 l 0,-325.125 c 0,-15.816 -12.871,-28.688 -28.688,-28.688 l -38.25,0 0,-19.125 C 277.312,8.559 268.754,0 258.188,0 Z m 57.374,57.375 c 5.278,0 9.562,4.284 9.562,9.562 l 0,325.125 c 0,5.278 -4.284,9.562 -9.562,9.562 l -210.374,0 c -5.278,0 -9.562,-4.284 -9.562,-9.562 l 0,-325.124 c 0,-5.278 4.284,-9.562 9.562,-9.562 l 57.375,0 95.625,0 57.374,0 z" /></g><rect
       style="opacity:1;fill:#ffffff;fill-opacity:1;stroke:#ffffff;stroke-width:20.66875648;stroke-miterlimit:4;stroke-dasharray:none;stroke-opacity:1"
       id="rect4160"
       width="213.11925"
       height="332.11923"
       x="101.44037"
       y="60.691372" /></g><g
     inkscape:groupmode="layer"
     id="layer2"
     inkscape:label="foreground"
     transform="translate(-56.499995,19.999994)"
     style="opacity:0.96"><g
       id="g3429"
       inkscape:export-xdpi="150"
       inkscape:export-ydpi="150"
       transform="matrix(0.99719516,0,0,1,0.21457063,0)"
       style="stroke-width:20.02810754;stroke-miterlimit:4;stroke-dasharray:none;stroke:#000000;stroke-opacity:1;fill:#000000;fill-opacity:1"><path
         d="m 258.188,0 -95.625,0 c -10.566,0 -19.125,8.559 -19.125,19.125 l 0,19.125 -38.25,0 C 89.371,38.25 76.5,51.121 76.5,66.938 l 0,325.125 c 0,15.816 12.871,28.688 28.688,28.688 l 210.375,0 c 15.816,0 28.688,-12.871 28.688,-28.688 l 0,-325.125 c 0,-15.816 -12.871,-28.688 -28.688,-28.688 l -38.25,0 0,-19.125 C 277.312,8.559 268.754,0 258.188,0 Z m 57.374,57.375 c 5.278,0 9.562,4.284 9.562,9.562 l 0,325.125 c 0,5.278 -4.284,9.562 -9.562,9.562 l -210.374,0 c -5.278,0 -9.562,-4.284 -9.562,-9.562 l 0,-325.124 c 0,-5.278 4.284,-9.562 9.562,-9.562 l 57.375,0 95.625,0 57.374,0 z"
         id="path3431"
         inkscape:connector-curvature="0"
         style="stroke-width:20.02810754;stroke-miterlimit:4;stroke-dasharray:none;stroke:#000000;stroke-opacity:1;fill:#000000;fill-opacity:1" /></g><g
       id="g3575"
       transform="matrix(0.48040294,0,0,0.48040294,112.53892,112.53904)"
       style=""><g
         id="g3527"
         style=""><g
           id="g3529"
           style=""><path
             id="path3531"
             d="m 203.652,241.068 c -33.646,0 -61.019,27.371 -61.019,61.016 0,33.646 27.371,61.019 61.019,61.019 33.645,0 61.018,-27.371 61.018,-61.019 -0.001,-33.645 -27.374,-61.016 -61.018,-61.016 z m 0,94.549 c -18.486,0 -33.531,-15.045 -33.531,-33.533 0,-18.486 15.045,-33.531 33.531,-33.531 18.494,0 33.531,15.045 33.531,33.531 0,18.488 -15.037,33.533 -33.531,33.533 z"
             inkscape:connector-curvature="0"
             style="" /><path
             id="path3533"
             d="m 203.652,174.603 c -40.578,0 -78.728,15.81 -107.42,44.503 -5.367,5.367 -5.367,14.064 0,19.432 2.686,2.686 6.2,4.027 9.717,4.027 3.518,0 7.033,-1.342 9.717,-4.027 23.5,-23.506 54.75,-36.45 87.986,-36.45 33.242,0 64.486,12.944 87.992,36.45 5.36,5.369 14.071,5.369 19.434,0 5.367,-5.367 5.367,-14.064 0,-19.432 -28.695,-28.695 -66.842,-44.503 -107.426,-44.503 z"
             inkscape:connector-curvature="0"
             style="" /><path
             id="path3535"
             d="m 47.832,170.696 c -5.369,5.368 -5.369,14.064 0,19.433 5.361,5.368 14.064,5.368 19.434,0 75.209,-75.195 197.572,-75.195 272.781,0 2.685,2.685 6.199,4.026 9.718,4.026 3.516,0 7.03,-1.342 9.715,-4.026 5.369,-5.368 5.369,-14.064 0,-19.433 -85.92,-85.918 -225.73,-85.918 -311.648,0 z"
             inkscape:connector-curvature="0"
             style="" /><path
             id="path3537"
             d="M 403.285,126.898 C 349.957,73.572 279.062,44.207 203.652,44.207 c -75.41,0 -146.306,29.365 -199.625,82.691 -5.369,5.368 -5.369,14.065 0,19.434 5.366,5.368 14.069,5.368 19.432,0 48.135,-48.134 112.123,-74.639 180.193,-74.639 68.07,0 132.065,26.505 180.199,74.639 2.684,2.684 6.198,4.026 9.717,4.026 3.516,0 7.031,-1.343 9.717,-4.026 5.367,-5.369 5.367,-14.066 0,-19.434 z"
             inkscape:connector-curvature="0"
             style="" /></g></g><g
         id="g3539"
         style="" /><g
         id="g3541"
         style="" /><g
         id="g3543"
         style="" /><g
         id="g3545"
         style="" /><g
         id="g3547"
         style="" /><g
         id="g3549"
         style="" /><g
         id="g3551"
         style="" /><g
         id="g3553"
         style="" /><g
         id="g3555"
         style="" /><g
         id="g3557"
         style="" /><g
         id="g3559"
         style="" /><g
         id="g3561"
         style="" /><g
         id="g3563"
         style="" /><g
         id="g3565"
         style="" /><g
         id="g3567"
         style="" /></g></g></svg>