<?xml version="1.0" encoding="UTF-8" standalone="no"?>
<!-- Generator: Adobe Illustrator 16.0.0, SVG Export Plug-In . SVG Version: 6.00 Build 0)  -->

<svg
   xmlns:dc="http://purl.org/dc/elements/1.1/"
   xmlns:cc="http://creativecommons.org/ns#"
   xmlns:rdf="http://www.w3.org/1999/02/22-rdf-syntax-ns#"
   xmlns:svg="http://www.w3.org/2000/svg"
   xmlns="http://www.w3.org/2000/svg"
   xmlns:sodipodi="http://sodipodi.sourceforge.net/DTD/sodipodi-0.dtd"
   xmlns:inkscape="http://www.inkscape.org/namespaces/inkscape"
   version="1.1"
   id="Capa_1"
   x="0px"
   y="0px"
   width="407.31px"
   height="407.31px"
   viewBox="0 0 407.31 407.31"
   style="enable-background:new 0 0 407.31 407.31;"
   xml:space="preserve"
   inkscape:version="0.91 r13725"
   sodipodi:docname="no_wifi.svg"
   inkscape:export-filename="/Users/Andreas/Desktop/no_wifi.png"
   inkscape:export-xdpi="150"
   inkscape:export-ydpi="150"><metadata
     id="metadata49"><rdf:RDF><cc:Work
         rdf:about=""><dc:format>image/svg+xml</dc:format><dc:type
           rdf:resource="http://purl.org/dc/dcmitype/StillImage" /></cc:Work></rdf:RDF></metadata><defs
     id="defs47"><filter
       style="color-interpolation-filters:sRGB;"
       inkscape:label="Invert"
       id="filter4155"><feColorMatrix
         type="hueRotate"
         values="180"
         result="color1"
         id="feColorMatrix4157" /><feColorMatrix
         values="1 0 0 0 0 0 1 0 0 0 0 0 1 0 0 -0.21 -0.72 -0.07 2 0 "
         result="fbSourceGraphic"
         id="feColorMatrix4159" /><feColorMatrix
         result="fbSourceGraphicAlpha"
         in="fbSourceGraphic"
         values="0 0 0 -1 0 0 0 0 -1 0 0 0 0 -1 0 0 0 0 1 0"
         id="feColorMatrix4173" /><feColorMatrix
         id="feColorMatrix4175"
         type="hueRotate"
         values="180"
         result="color1"
         in="fbSourceGraphic" /><feColorMatrix
         id="feColorMatrix4177"
         values="1 0 0 0 0 0 1 0 0 0 0 0 1 0 0 -0.21 -0.72 -0.07 2 0 "
         result="fbSourceGraphic" /><feColorMatrix
         result="fbSourceGraphicAlpha"
         in="fbSourceGraphic"
         values="0 0 0 -1 0 0 0 0 -1 0 0 0 0 -1 0 0 0 0 1 0"
         id="feColorMatrix4191" /><feColorMatrix
         id="feColorMatrix4193"
         type="hueRotate"
         values="180"
         result="color1"
         in="fbSourceGraphic" /><feColorMatrix
         id="feColorMatrix4195"
         values="1 0 0 0 0 0 1 0 0 0 0 0 1 0 0 -0.21 -0.72 -0.07 2 0 "
         result="color2" /></filter><filter
       style="color-interpolation-filters:sRGB;"
       inkscape:label="Invert"
       id="filter4161"><feColorMatrix
         type="hueRotate"
         values="180"
         result="color1"
         id="feColorMatrix4163" /><feColorMatrix
         values="1 0 0 0 0 0 1 0 0 0 0 0 1 0 0 -0.21 -0.72 -0.07 2 0 "
         result="fbSourceGraphic"
         id="feColorMatrix4165" /><feColorMatrix
         result="fbSourceGraphicAlpha"
         in="fbSourceGraphic"
         values="0 0 0 -1 0 0 0 0 -1 0 0 0 0 -1 0 0 0 0 1 0"
         id="feColorMatrix4179" /><feColorMatrix
         id="feColorMatrix4181"
         type="hueRotate"
         values="180"
         result="color1"
         in="fbSourceGraphic" /><feColorMatrix
         id="feColorMatrix4183"
         values="1 0 0 0 0 0 1 0 0 0 0 0 1 0 0 -0.21 -0.72 -0.07 2 0 "
         result="fbSourceGraphic" /><feColorMatrix
         result="fbSourceGraphicAlpha"
         in="fbSourceGraphic"
         values="0 0 0 -1 0 0 0 0 -1 0 0 0 0 -1 0 0 0 0 1 0"
         id="feColorMatrix4197" /><feColorMatrix
         id="feColorMatrix4199"
         type="hueRotate"
         values="180"
         result="color1"
         in="fbSourceGraphic" /><feColorMatrix
         id="feColorMatrix4201"
         values="1 0 0 0 0 0 1 0 0 0 0 0 1 0 0 -0.21 -0.72 -0.07 2 0 "
         result="color2" /></filter><filter
       style="color-interpolation-filters:sRGB;"
       inkscape:label="Invert"
       id="filter4167"><feColorMatrix
         type="hueRotate"
         values="180"
         result="color1"
         id="feColorMatrix4169" /><feColorMatrix
         values="1 0 0 0 0 0 1 0 0 0 0 0 1 0 0 -0.21 -0.72 -0.07 2 0 "
         result="fbSourceGraphic"
         id="feColorMatrix4171" /><feColorMatrix
         result="fbSourceGraphicAlpha"
         in="fbSourceGraphic"
         values="0 0 0 -1 0 0 0 0 -1 0 0 0 0 -1 0 0 0 0 1 0"
         id="feColorMatrix4185" /><feColorMatrix
         id="feColorMatrix4187"
         type="hueRotate"
         values="180"
         result="color1"
         in="fbSourceGraphic" /><feColorMatrix
         id="feColorMatrix4189"
         values="1 0 0 0 0 0 1 0 0 0 0 0 1 0 0 -0.21 -0.72 -0.07 2 0 "
         result="fbSourceGraphic" /><feColorMatrix
         result="fbSourceGraphicAlpha"
         in="fbSourceGraphic"
         values="0 0 0 -1 0 0 0 0 -1 0 0 0 0 -1 0 0 0 0 1 0"
         id="feColorMatrix4203" /><feColorMatrix
         id="feColorMatrix4205"
         type="hueRotate"
         values="180"
         result="color1"
         in="fbSourceGraphic" /><feColorMatrix
         id="feColorMatrix4207"
         values="1 0 0 0 0 0 1 0 0 0 0 0 1 0 0 -0.21 -0.72 -0.07 2 0 "
         result="color2" /></filter></defs><sodipodi:namedview
     pagecolor="#ffffff"
     bordercolor="#666666"
     borderopacity="1"
     objecttolerance="10"
     gridtolerance="10"
     guidetolerance="10"
     inkscape:pageopacity="0"
     inkscape:pageshadow="2"
     inkscape:window-width="1280"
     inkscape:window-height="694"
     id="namedview45"
     showgrid="false"
     inkscape:zoom="0.9483467"
     inkscape:cx="251.63348"
     inkscape:cy="213.09501"
     inkscape:window-x="0"
     inkscape:window-y="0"
     inkscape:window-maximized="1"
     inkscape:current-layer="Capa_1" /><g
     id="g3"
     style="filter:url(#filter4161);fill:#ffffff;fill-opacity:1"><g
       id="g5"
       style="fill:#ffffff;fill-opacity:1"><path
         d="M203.652,241.068c-33.646,0-61.019,27.371-61.019,61.016c0,33.646,27.371,61.019,61.019,61.019    c33.645,0,61.018-27.371,61.018-61.019C264.669,268.439,237.296,241.068,203.652,241.068z M203.652,335.617    c-18.486,0-33.531-15.045-33.531-33.533c0-18.486,15.045-33.531,33.531-33.531c18.494,0,33.531,15.045,33.531,33.531    C237.183,320.572,222.146,335.617,203.652,335.617z"
         id="path7"
         style="fill:#ffffff;fill-opacity:1" /><path
         d="M203.652,174.603c-40.578,0-78.728,15.81-107.42,44.503c-5.367,5.367-5.367,14.064,0,19.432    c2.686,2.686,6.2,4.027,9.717,4.027c3.518,0,7.033-1.342,9.717-4.027c23.5-23.506,54.75-36.45,87.986-36.45    c33.242,0,64.486,12.944,87.992,36.45c5.36,5.369,14.071,5.369,19.434,0c5.367-5.367,5.367-14.064,0-19.432    C282.383,190.411,244.236,174.603,203.652,174.603z"
         id="path9"
         style="fill:#ffffff;fill-opacity:1" /><path
         d="M47.832,170.696c-5.369,5.368-5.369,14.064,0,19.433c5.361,5.368,14.064,5.368,19.434,0    c75.209-75.195,197.572-75.195,272.781,0c2.685,2.685,6.199,4.026,9.718,4.026c3.516,0,7.03-1.342,9.715-4.026    c5.369-5.368,5.369-14.064,0-19.433C273.56,84.778,133.75,84.778,47.832,170.696z"
         id="path11"
         style="fill:#ffffff;fill-opacity:1" /><path
         d="M403.285,126.898c-53.328-53.326-124.223-82.691-199.633-82.691S57.346,73.572,4.027,126.898    c-5.369,5.368-5.369,14.065,0,19.434c5.366,5.368,14.069,5.368,19.432,0c48.135-48.134,112.123-74.639,180.193-74.639    s132.065,26.505,180.199,74.639c2.684,2.684,6.198,4.026,9.717,4.026c3.516,0,7.031-1.343,9.717-4.026    C408.652,140.963,408.652,132.266,403.285,126.898z"
         id="path13"
         style="fill:#ffffff;fill-opacity:1" /></g></g><g
     id="g15" /><g
     id="g17" /><g
     id="g19" /><g
     id="g21" /><g
     id="g23" /><g
     id="g25" /><g
     id="g27" /><g
     id="g29" /><g
     id="g31" /><g
     id="g33" /><g
     id="g35" /><g
     id="g37" /><g
     id="g39" /><g
     id="g41" /><g
     id="g43" /><rect
     style="opacity:1;fill:#ffffff;fill-opacity:1;stroke:#ffffff;stroke-width:16.81148148;stroke-miterlimit:4;stroke-dasharray:none;stroke-opacity:1;filter:url(#filter4167)"
     id="rect4177"
     width="381.02896"
     height="17.747496"
     x="78.373955"
     y="-19.883835"
     transform="matrix(0.70969699,0.70450705,-0.67078275,0.7416539,0,0)"
     inkscape:transform-center-x="-26.058627"
     inkscape:transform-center-y="-68.969183" /><rect
     inkscape:transform-center-y="-84.926744"
     inkscape:transform-center-x="-32.087878"
     transform="matrix(0.70969699,0.70450705,-0.67078275,0.7416539,0,0)"
     y="-36.083561"
     x="42.463543"
     height="21.853779"
     width="469.18857"
     id="rect4179"
     style="opacity:1;fill:#000000;fill-opacity:1;stroke:#000000;stroke-width:0;stroke-miterlimit:4;stroke-dasharray:none;stroke-opacity:1;filter:url(#filter4155)" /></svg>